<?xml version="1.0" encoding="UTF-8"?><svg id="a" xmlns="http://www.w3.org/2000/svg" viewBox="0 0 630 660"><path d="M253.69,44.87c3.73,3.73,6.66,14.69,4.18,19.82-60.62,66.92-80.06,158.94-44.66,243.39,52.85,126.1,207.11,175.97,324.59,104.32,8.95-5.46,33.07-27.04,39.39-28.48,48.33-11,6.25,69.48-2.7,85.51C407.63,768.15-59,585.12,31,247.28,54.26,159.96,141.46,57.06,233.88,40.69c6.38-1.13,14.95-.67,19.81,4.18Z" fill="#8579e7"/><path d="M422.34,217.77c11.51,11.51,55.49,15.19,51.07,39.64-3.02,16.74-40.6,22.78-50.44,33.44-10.8,11.69-17.98,57.01-41.47,50.47-17.05-4.75-21.47-39.72-33.24-50.64-10.86-10.07-47.75-17.18-50.62-33.28-4.28-24,40-28.55,51.09-39.63,11.68-11.68,14.28-53.63,39.15-50.45,20.88,2.67,23.31,39.31,34.45,50.45ZM505.45,98.52c-46.14-7.32-45.86,44.02,0,36.16-7.76,46.54,45.06,48.17,36.17,0,48.6,8.5,47.27-43.48,0-36.16,8.42-46.77-43.01-45.65-36.18,0Z" fill="#f98c5e"/></svg>