<?xml version="1.0" encoding="UTF-8"?><svg id="a" xmlns="http://www.w3.org/2000/svg" viewBox="0 0 942 715"><path d="M668.76,203.99c60.2-3.79,112.68,43.13,143.59,97.83,78.47,138.89,23.62,249.92-95.18,316.01-76.13,42.36-232.35,108.07-222.63-54.74,2.75-46.16,31.08-182.81,45.27-227.42,20.34-63.97,65.56-127.7,128.95-131.68Z" fill="#f68fbc"/><path d="M162.2,254.26c112.36-29.38,99.53,94.26,151.29,161.23,40.9,52.92,139.29,75.59,144.42,158.96,8.21,133.54-165.09,128.1-243.51,111.13-148.77-32.19-176.46-155.09-132.24-308.9,10.86-37.77,43.84-112.95,80.04-122.42Z" fill="#b2b6ba"/><path d="M444.08,40.28c56.44-5.44,193.19,2.87,187.33,98.06-3.65,59.3-68.76,86.58-94.87,131.89-38.04,66.03-23.08,174.6-122.36,164.79-67.08-6.63-130.84-96.37-141.58-168.77-21.52-145.13,54.47-214.7,171.48-225.97Z" fill="#8579e7"/></svg>